<svg width="24" height="25" viewBox="0 0 24 25" fill="none" xmlns="http://www.w3.org/2000/svg">
<path d="M12.0001 9.3753C10.2798 9.3753 8.8759 10.7792 8.8759 12.4995C8.8759 14.2198 10.2798 15.6237 12.0001 15.6237C13.7204 15.6237 15.1243 14.2198 15.1243 12.4995C15.1243 10.7792 13.7204 9.3753 12.0001 9.3753ZM21.3704 12.4995C21.3704 11.2058 21.3822 9.92374 21.3095 8.63234C21.2368 7.13234 20.8947 5.80109 19.7978 4.70421C18.6986 3.60499 17.3697 3.26515 15.8697 3.19249C14.5759 3.11984 13.2939 3.13156 12.0025 3.13156C10.7087 3.13156 9.42668 3.11984 8.13527 3.19249C6.63527 3.26515 5.30402 3.60734 4.20714 4.70421C3.10792 5.80343 2.76808 7.13234 2.69542 8.63234C2.62277 9.92608 2.63449 11.2081 2.63449 12.4995C2.63449 13.7909 2.62277 15.0753 2.69542 16.3667C2.76808 17.8667 3.11027 19.198 4.20714 20.2948C5.30636 21.394 6.63527 21.7339 8.13527 21.8065C9.42902 21.8792 10.7111 21.8675 12.0025 21.8675C13.2962 21.8675 14.5782 21.8792 15.8697 21.8065C17.3697 21.7339 18.7009 21.3917 19.7978 20.2948C20.897 19.1956 21.2368 17.8667 21.3095 16.3667C21.3845 15.0753 21.3704 13.7933 21.3704 12.4995ZM12.0001 17.3066C9.33996 17.3066 7.19308 15.1597 7.19308 12.4995C7.19308 9.83937 9.33996 7.69249 12.0001 7.69249C14.6603 7.69249 16.8072 9.83937 16.8072 12.4995C16.8072 15.1597 14.6603 17.3066 12.0001 17.3066ZM17.004 8.61827C16.3829 8.61827 15.8814 8.11671 15.8814 7.49562C15.8814 6.87452 16.3829 6.37296 17.004 6.37296C17.6251 6.37296 18.1267 6.87452 18.1267 7.49562C18.1269 7.6431 18.098 7.78917 18.0416 7.92546C17.9853 8.06175 17.9026 8.18558 17.7983 8.28987C17.694 8.39415 17.5702 8.47684 17.4339 8.53319C17.2976 8.58955 17.1515 8.61846 17.004 8.61827Z" fill="#F1F5F8"/>
</svg>
