<svg width="24" height="25" viewBox="0 0 24 25" fill="none" xmlns="http://www.w3.org/2000/svg">
<path fill-rule="evenodd" clip-rule="evenodd" d="M1 3.338C1 2.85053 1.19365 2.38303 1.53834 2.03834C1.88303 1.69365 2.35053 1.5 2.838 1.5H21.16C21.4016 1.49961 21.6409 1.54687 21.8641 1.63907C22.0874 1.73127 22.2903 1.86661 22.4612 2.03734C22.6322 2.20807 22.7677 2.41083 22.8602 2.63401C22.9526 2.8572 23.0001 3.09643 23 3.338V21.66C23.0003 21.9016 22.9529 22.1409 22.8606 22.3642C22.7683 22.5875 22.6328 22.7904 22.462 22.9613C22.2912 23.1322 22.0884 23.2678 21.8651 23.3602C21.6419 23.4526 21.4026 23.5001 21.161 23.5H2.838C2.59655 23.5 2.35746 23.4524 2.1344 23.36C1.91134 23.2676 1.70867 23.1321 1.53798 22.9613C1.3673 22.7905 1.23193 22.5878 1.13962 22.3647C1.04731 22.1416 0.999869 21.9025 1 21.661V3.338ZM9.708 9.888H12.687V11.384C13.117 10.524 14.217 9.75 15.87 9.75C19.039 9.75 19.79 11.463 19.79 14.606V20.428H16.583V15.322C16.583 13.532 16.153 12.522 15.061 12.522C13.546 12.522 12.916 13.611 12.916 15.322V20.428H9.708V9.888ZM4.208 20.291H7.416V9.75H4.208V20.29V20.291ZM7.875 6.312C7.88105 6.58668 7.83217 6.85979 7.73124 7.11532C7.63031 7.37084 7.47935 7.60364 7.28723 7.80003C7.09511 7.99643 6.8657 8.15248 6.61246 8.25901C6.35921 8.36554 6.08724 8.42042 5.8125 8.42042C5.53776 8.42042 5.26579 8.36554 5.01255 8.25901C4.7593 8.15248 4.52989 7.99643 4.33777 7.80003C4.14565 7.60364 3.99469 7.37084 3.89376 7.11532C3.79283 6.85979 3.74395 6.58668 3.75 6.312C3.76187 5.77286 3.98439 5.25979 4.36989 4.88269C4.75539 4.50558 5.27322 4.29442 5.8125 4.29442C6.35178 4.29442 6.86961 4.50558 7.25512 4.88269C7.64062 5.25979 7.86313 5.77286 7.875 6.312Z" fill="#F1F5F8"/>
</svg>
