<svg width="35" height="35" viewBox="0 0 35 35" fill="none" xmlns="http://www.w3.org/2000/svg">
<path fill-rule="evenodd" clip-rule="evenodd" d="M33.5309 0C34.3423 0 35 0.657733 35 1.46909V1.46909V17.5V33.5309V33.5309C35 34.3423 34.3423 35 33.5309 35H33.3966H17.5334H1.67029V35C0.747812 35 0 34.2522 0 33.3297V33.2208V17.5V1.77922V1.67029C0 0.747812 0.747812 0 1.67029 0V0H17.5334H33.3966H33.5309ZM7.18371 5.44509C6.71314 5.76252 6.19229 21.0673 6.47971 26.1231C6.68229 29.6824 6.79114 29.8261 9.28628 29.8261V29.8261C10.048 29.8261 10.7403 29.3833 11.0597 28.6919L11.482 27.7778C12.3474 25.9049 12.4323 25.4681 12.4723 22.68C12.4963 21.0027 12.5286 19.4594 12.5437 19.25C12.5589 19.0409 12.8883 18.8696 13.2757 18.8696C14.3629 18.8696 14.7069 19.8739 14.6831 22.9783C14.6631 25.6084 14.56 26.0765 13.2917 29.2935C13.0969 29.788 13.4131 29.8261 17.7186 29.8261C21.3886 29.8261 22.2969 29.7467 22.0729 29.4457C21.2443 28.3305 20.5197 25.3111 20.5209 22.9783C20.5226 19.8063 20.8734 18.7962 21.9286 18.9256V18.9256C22.3773 18.9805 22.7148 19.3612 22.7156 19.8133L22.7197 22.3696C22.7243 25.3984 22.8 25.8811 23.5123 27.4363C24.5677 29.7406 24.8249 29.9299 26.5549 29.6763C27.9171 29.4767 27.994 29.4149 28.2063 28.353C28.4986 26.8879 28.4946 7.78765 28.2014 6.31522V6.31522C28.0692 5.6517 27.4868 5.17391 26.8103 5.17391H23.0891H21.2361C19.5942 5.17391 18.2937 6.56118 18.3997 8.19974V8.19974C18.586 11.0816 18.5663 11.2423 17.9883 11.5719C17.4989 11.851 17.2749 11.8157 16.8334 11.3902C16.368 10.9416 16.2857 10.4346 16.2857 8.01804V8.01804C16.2857 6.44776 15.0119 5.17525 13.4416 5.17689L11.9286 5.17848C9.532 5.18122 7.39686 5.30113 7.18371 5.44509Z" fill="white"/>
<path fill-rule="evenodd" clip-rule="evenodd" d="M33.5309 0C34.3423 0 35 0.657733 35 1.46909V1.46909V17.5V33.5309V33.5309C35 34.3423 34.3423 35 33.5309 35H33.3966H17.5334H1.67029V35C0.747812 35 0 34.2522 0 33.3297V33.2208V17.5V1.77922V1.67029C0 0.747812 0.747812 0 1.67029 0V0H17.5334H33.3966H33.5309ZM7.18371 5.44509C6.71314 5.76252 6.19229 21.0673 6.47971 26.1231C6.68229 29.6824 6.79114 29.8261 9.28628 29.8261V29.8261C10.048 29.8261 10.7403 29.3833 11.0597 28.6919L11.482 27.7778C12.3474 25.9049 12.4323 25.4681 12.4723 22.68C12.4963 21.0027 12.5286 19.4594 12.5437 19.25C12.5589 19.0409 12.8883 18.8696 13.2757 18.8696C14.3629 18.8696 14.7069 19.8739 14.6831 22.9783C14.6631 25.6084 14.56 26.0765 13.2917 29.2935C13.0969 29.788 13.4131 29.8261 17.7186 29.8261C21.3886 29.8261 22.2969 29.7467 22.0729 29.4457C21.2443 28.3305 20.5197 25.3111 20.5209 22.9783C20.5226 19.8063 20.8734 18.7962 21.9286 18.9256V18.9256C22.3773 18.9805 22.7148 19.3612 22.7156 19.8133L22.7197 22.3696C22.7243 25.3984 22.8 25.8811 23.5123 27.4363C24.5677 29.7406 24.8249 29.9299 26.5549 29.6763C27.9171 29.4767 27.994 29.4149 28.2063 28.353C28.4986 26.8879 28.4946 7.78765 28.2014 6.31522V6.31522C28.0692 5.6517 27.4868 5.17391 26.8103 5.17391H23.0891H21.2361C19.5942 5.17391 18.2937 6.56118 18.3997 8.19974V8.19974C18.586 11.0816 18.5663 11.2423 17.9883 11.5719C17.4989 11.851 17.2749 11.8157 16.8334 11.3902C16.368 10.9416 16.2857 10.4346 16.2857 8.01804V8.01804C16.2857 6.44776 15.0119 5.17525 13.4416 5.17689L11.9286 5.17848C9.532 5.18122 7.39686 5.30113 7.18371 5.44509Z" fill="url(#paint0_linear_259_386)"/>
<path fill-rule="evenodd" clip-rule="evenodd" d="M33.5309 0C34.3423 0 35 0.657733 35 1.46909V1.46909V17.5V33.5309V33.5309C35 34.3423 34.3423 35 33.5309 35H33.3966H17.5334H1.67029V35C0.747812 35 0 34.2522 0 33.3297V33.2208V17.5V1.77922V1.67029C0 0.747812 0.747812 0 1.67029 0V0H17.5334H33.3966H33.5309ZM7.18371 5.44509C6.71314 5.76252 6.19229 21.0673 6.47971 26.1231C6.68229 29.6824 6.79114 29.8261 9.28628 29.8261V29.8261C10.048 29.8261 10.7403 29.3833 11.0597 28.6919L11.482 27.7778C12.3474 25.9049 12.4323 25.4681 12.4723 22.68C12.4963 21.0027 12.5286 19.4594 12.5437 19.25C12.5589 19.0409 12.8883 18.8696 13.2757 18.8696C14.3629 18.8696 14.7069 19.8739 14.6831 22.9783C14.6631 25.6084 14.56 26.0765 13.2917 29.2935C13.0969 29.788 13.4131 29.8261 17.7186 29.8261C21.3886 29.8261 22.2969 29.7467 22.0729 29.4457C21.2443 28.3305 20.5197 25.3111 20.5209 22.9783C20.5226 19.8063 20.8734 18.7962 21.9286 18.9256V18.9256C22.3773 18.9805 22.7148 19.3612 22.7156 19.8133L22.7197 22.3696C22.7243 25.3984 22.8 25.8811 23.5123 27.4363C24.5677 29.7406 24.8249 29.9299 26.5549 29.6763C27.9171 29.4767 27.994 29.4149 28.2063 28.353C28.4986 26.8879 28.4946 7.78765 28.2014 6.31522V6.31522C28.0692 5.6517 27.4868 5.17391 26.8103 5.17391H23.0891H21.2361C19.5942 5.17391 18.2937 6.56118 18.3997 8.19974V8.19974C18.586 11.0816 18.5663 11.2423 17.9883 11.5719C17.4989 11.851 17.2749 11.8157 16.8334 11.3902C16.368 10.9416 16.2857 10.4346 16.2857 8.01804V8.01804C16.2857 6.44776 15.0119 5.17525 13.4416 5.17689L11.9286 5.17848C9.532 5.18122 7.39686 5.30113 7.18371 5.44509Z" fill="url(#paint1_linear_259_386)"/>
<defs>
<linearGradient id="paint0_linear_259_386" x1="-1.77324e-07" y1="3.5" x2="36.6559" y2="5.56189" gradientUnits="userSpaceOnUse">
<stop stop-color="#FF5137"/>
<stop offset="1" stop-color="#FD16D5"/>
</linearGradient>
<linearGradient id="paint1_linear_259_386" x1="-1.77324e-07" y1="3.5" x2="36.6559" y2="5.56189" gradientUnits="userSpaceOnUse">
<stop stop-color="#F7C0EC"/>
<stop offset="1" stop-color="#A7BDEA"/>
</linearGradient>
</defs>
</svg>
