<svg width="85" height="85" viewBox="0 0 85 85" fill="none" xmlns="http://www.w3.org/2000/svg">
<g filter="url(#filter0_f_259_387)">
<path fill-rule="evenodd" clip-rule="evenodd" d="M58.5309 25C59.3423 25 60 25.6577 60 26.4691V26.4691V42.5V58.5309V58.5309C60 59.3423 59.3423 60 58.5309 60H58.3966H42.5334H26.6703V60C25.7478 60 25 59.2522 25 58.3297V58.2208V42.5V26.7792V26.6703C25 25.7478 25.7478 25 26.6703 25V25H42.5334H58.3966H58.5309ZM32.1837 30.4451C31.7131 30.7625 31.1923 46.0673 31.4797 51.1231C31.6823 54.6824 31.7911 54.8261 34.2863 54.8261V54.8261C35.048 54.8261 35.7403 54.3833 36.0597 53.6919L36.482 52.7778C37.3474 50.9049 37.4323 50.4681 37.4723 47.68C37.4963 46.0027 37.5286 44.4594 37.5437 44.25C37.5589 44.0409 37.8883 43.8696 38.2757 43.8696C39.3629 43.8696 39.7069 44.8739 39.6831 47.9783C39.6631 50.6084 39.56 51.0765 38.2917 54.2935C38.0969 54.788 38.4131 54.8261 42.7186 54.8261C46.3886 54.8261 47.2969 54.7467 47.0729 54.4457C46.2443 53.3305 45.5197 50.3111 45.5209 47.9783C45.5226 44.8063 45.8734 43.7962 46.9286 43.9256V43.9256C47.3773 43.9805 47.7148 44.3612 47.7156 44.8133L47.7197 47.3696C47.7243 50.3984 47.8 50.8811 48.5123 52.4363C49.5677 54.7406 49.8249 54.9299 51.5549 54.6763C52.9171 54.4767 52.994 54.4149 53.2063 53.353C53.4986 51.8879 53.4946 32.7877 53.2014 31.3152V31.3152C53.0692 30.6517 52.4868 30.1739 51.8103 30.1739H48.0891H46.2361C44.5942 30.1739 43.2937 31.5612 43.3997 33.1997V33.1997C43.586 36.0816 43.5663 36.2423 42.9883 36.5719C42.4989 36.851 42.2749 36.8157 41.8334 36.3902C41.368 35.9416 41.2857 35.4346 41.2857 33.018V33.018C41.2857 31.4478 40.0119 30.1752 38.4416 30.1769L36.9286 30.1785C34.532 30.1812 32.3969 30.3011 32.1837 30.4451Z" fill="white"/>
<path fill-rule="evenodd" clip-rule="evenodd" d="M58.5309 25C59.3423 25 60 25.6577 60 26.4691V26.4691V42.5V58.5309V58.5309C60 59.3423 59.3423 60 58.5309 60H58.3966H42.5334H26.6703V60C25.7478 60 25 59.2522 25 58.3297V58.2208V42.5V26.7792V26.6703C25 25.7478 25.7478 25 26.6703 25V25H42.5334H58.3966H58.5309ZM32.1837 30.4451C31.7131 30.7625 31.1923 46.0673 31.4797 51.1231C31.6823 54.6824 31.7911 54.8261 34.2863 54.8261V54.8261C35.048 54.8261 35.7403 54.3833 36.0597 53.6919L36.482 52.7778C37.3474 50.9049 37.4323 50.4681 37.4723 47.68C37.4963 46.0027 37.5286 44.4594 37.5437 44.25C37.5589 44.0409 37.8883 43.8696 38.2757 43.8696C39.3629 43.8696 39.7069 44.8739 39.6831 47.9783C39.6631 50.6084 39.56 51.0765 38.2917 54.2935C38.0969 54.788 38.4131 54.8261 42.7186 54.8261C46.3886 54.8261 47.2969 54.7467 47.0729 54.4457C46.2443 53.3305 45.5197 50.3111 45.5209 47.9783C45.5226 44.8063 45.8734 43.7962 46.9286 43.9256V43.9256C47.3773 43.9805 47.7148 44.3612 47.7156 44.8133L47.7197 47.3696C47.7243 50.3984 47.8 50.8811 48.5123 52.4363C49.5677 54.7406 49.8249 54.9299 51.5549 54.6763C52.9171 54.4767 52.994 54.4149 53.2063 53.353C53.4986 51.8879 53.4946 32.7877 53.2014 31.3152V31.3152C53.0692 30.6517 52.4868 30.1739 51.8103 30.1739H48.0891H46.2361C44.5942 30.1739 43.2937 31.5612 43.3997 33.1997V33.1997C43.586 36.0816 43.5663 36.2423 42.9883 36.5719C42.4989 36.851 42.2749 36.8157 41.8334 36.3902C41.368 35.9416 41.2857 35.4346 41.2857 33.018V33.018C41.2857 31.4478 40.0119 30.1752 38.4416 30.1769L36.9286 30.1785C34.532 30.1812 32.3969 30.3011 32.1837 30.4451Z" fill="url(#paint0_linear_259_387)"/>
<path fill-rule="evenodd" clip-rule="evenodd" d="M58.5309 25C59.3423 25 60 25.6577 60 26.4691V26.4691V42.5V58.5309V58.5309C60 59.3423 59.3423 60 58.5309 60H58.3966H42.5334H26.6703V60C25.7478 60 25 59.2522 25 58.3297V58.2208V42.5V26.7792V26.6703C25 25.7478 25.7478 25 26.6703 25V25H42.5334H58.3966H58.5309ZM32.1837 30.4451C31.7131 30.7625 31.1923 46.0673 31.4797 51.1231C31.6823 54.6824 31.7911 54.8261 34.2863 54.8261V54.8261C35.048 54.8261 35.7403 54.3833 36.0597 53.6919L36.482 52.7778C37.3474 50.9049 37.4323 50.4681 37.4723 47.68C37.4963 46.0027 37.5286 44.4594 37.5437 44.25C37.5589 44.0409 37.8883 43.8696 38.2757 43.8696C39.3629 43.8696 39.7069 44.8739 39.6831 47.9783C39.6631 50.6084 39.56 51.0765 38.2917 54.2935C38.0969 54.788 38.4131 54.8261 42.7186 54.8261C46.3886 54.8261 47.2969 54.7467 47.0729 54.4457C46.2443 53.3305 45.5197 50.3111 45.5209 47.9783C45.5226 44.8063 45.8734 43.7962 46.9286 43.9256V43.9256C47.3773 43.9805 47.7148 44.3612 47.7156 44.8133L47.7197 47.3696C47.7243 50.3984 47.8 50.8811 48.5123 52.4363C49.5677 54.7406 49.8249 54.9299 51.5549 54.6763C52.9171 54.4767 52.994 54.4149 53.2063 53.353C53.4986 51.8879 53.4946 32.7877 53.2014 31.3152V31.3152C53.0692 30.6517 52.4868 30.1739 51.8103 30.1739H48.0891H46.2361C44.5942 30.1739 43.2937 31.5612 43.3997 33.1997V33.1997C43.586 36.0816 43.5663 36.2423 42.9883 36.5719C42.4989 36.851 42.2749 36.8157 41.8334 36.3902C41.368 35.9416 41.2857 35.4346 41.2857 33.018V33.018C41.2857 31.4478 40.0119 30.1752 38.4416 30.1769L36.9286 30.1785C34.532 30.1812 32.3969 30.3011 32.1837 30.4451Z" fill="url(#paint1_linear_259_387)"/>
</g>
<defs>
<filter id="filter0_f_259_387" x="0" y="0" width="85" height="85" filterUnits="userSpaceOnUse" color-interpolation-filters="sRGB">
<feFlood flood-opacity="0" result="BackgroundImageFix"/>
<feBlend mode="normal" in="SourceGraphic" in2="BackgroundImageFix" result="shape"/>
<feGaussianBlur stdDeviation="12.5" result="effect1_foregroundBlur_259_387"/>
</filter>
<linearGradient id="paint0_linear_259_387" x1="25" y1="28.5" x2="61.6559" y2="30.5619" gradientUnits="userSpaceOnUse">
<stop stop-color="#FF5137"/>
<stop offset="1" stop-color="#FD16D5"/>
</linearGradient>
<linearGradient id="paint1_linear_259_387" x1="25" y1="28.5" x2="61.6559" y2="30.5619" gradientUnits="userSpaceOnUse">
<stop stop-color="#F7C0EC"/>
<stop offset="1" stop-color="#A7BDEA"/>
</linearGradient>
</defs>
</svg>
