<svg width="42" height="40" viewBox="0 0 42 40" fill="none" xmlns="http://www.w3.org/2000/svg">
<path d="M32.3247 40C31.8279 40 31.3336 39.8475 30.9081 39.5438L20.9047 32.3699L10.9013 39.5438C10.0492 40.1537 8.90558 40.1537 8.05834 39.5339C7.21109 38.9203 6.85449 37.8309 7.17174 36.836L10.9026 24.7951L0.988954 17.8093C0.146629 17.1884 -0.203828 16.0964 0.118346 15.1004C0.44298 14.1068 1.36769 13.4317 2.41291 13.4243L14.6912 13.4059L18.6003 1.66375C18.9299 0.668941 19.8583 0 20.9047 0C21.9512 0 22.8796 0.670171 23.2104 1.66375L27.0531 13.4059L39.3941 13.4243C40.443 13.4317 41.3689 14.108 41.6899 15.1004C42.0133 16.0964 41.6628 17.1884 40.8193 17.8093L30.9056 24.7951L34.6365 36.836C34.9562 37.8309 34.5959 38.9203 33.7511 39.5339C33.3244 39.8463 32.8252 40 32.3247 40Z" fill="#FFAC33"/>
</svg>
