<svg width="20" height="20" viewBox="0 0 20 20" fill="none" xmlns="http://www.w3.org/2000/svg">
<path d="M15.4631 20C15.2254 20 14.9889 19.9238 14.7854 19.7719L10.0001 16.1849L5.21484 19.7719C4.8072 20.0769 4.26014 20.0769 3.85484 19.767C3.44955 19.4602 3.27896 18.9154 3.43073 18.418L5.21543 12.3975L0.473083 8.90467C0.0701424 8.59418 -0.0975044 8.0482 0.056613 7.55018C0.211907 7.0534 0.654259 6.71585 1.15426 6.71216L7.02778 6.70294L8.89778 0.831873C9.05542 0.334471 9.49954 0 10.0001 0C10.5007 0 10.9448 0.335085 11.1031 0.831873L12.9413 6.70294L18.8448 6.71216C19.3466 6.71585 19.7895 7.05401 19.9431 7.55018C20.0978 8.0482 19.9301 8.59418 19.5266 8.90467L14.7842 12.3975L16.5689 18.418C16.7219 18.9154 16.5495 19.4602 16.1454 19.767C15.9413 19.9231 15.7025 20 15.4631 20V20Z" fill="#FFAC33"/>
</svg>
