<svg width="24" height="25" viewBox="0 0 24 25" fill="none" xmlns="http://www.w3.org/2000/svg">
<path d="M23.6425 5.43757C22.8075 5.80757 21.9105 6.05757 20.9675 6.17057C21.9405 5.58836 22.6685 4.67203 23.0155 3.59257C22.1014 4.13555 21.1009 4.51776 20.0575 4.72257C19.3559 3.97343 18.4266 3.47689 17.4138 3.31004C16.4011 3.14319 15.3616 3.31536 14.4568 3.79982C13.5519 4.28428 12.8323 5.05393 12.4097 5.98927C11.9871 6.92461 11.8851 7.97332 12.1195 8.97257C10.2672 8.87956 8.45515 8.39811 6.80095 7.55947C5.14674 6.72083 3.68736 5.54373 2.51752 4.10457C2.11752 4.79457 1.88752 5.59457 1.88752 6.44657C1.88708 7.21356 2.07596 7.96881 2.4374 8.6453C2.79885 9.32179 3.32168 9.8986 3.95952 10.3246C3.2198 10.301 2.4964 10.1011 1.84952 9.74157V9.80156C1.84945 10.8773 2.22156 11.9199 2.90271 12.7526C3.58386 13.5852 4.53209 14.1565 5.58652 14.3696C4.90031 14.5553 4.18086 14.5826 3.48252 14.4496C3.78002 15.3752 4.35952 16.1846 5.13989 16.7645C5.92026 17.3444 6.86244 17.6657 7.83452 17.6836C6.18436 18.979 4.14641 19.6817 2.04852 19.6786C1.6769 19.6787 1.3056 19.657 0.936523 19.6136C3.066 20.9827 5.54486 21.7094 8.07652 21.7066C16.6465 21.7066 21.3315 14.6086 21.3315 8.45257C21.3315 8.25257 21.3265 8.05056 21.3175 7.85056C22.2288 7.19154 23.0154 6.37546 23.6405 5.44057L23.6425 5.43757Z" fill="#F1F5F8"/>
</svg>
